<svg xmlns="http://www.w3.org/2000/svg" width="100" height="98" viewBox="0 0 100 98">
  <defs>
    <style>
      .cls-1 {
        fill: #fff;
        fill-rule: evenodd;
      }
    </style>
  </defs>
  <path id="Фигура_21" data-name="Фигура 21" class="cls-1" d="M1413.6,1954.58l-16.74-21.59a1.975,1.975,0,0,0-2.61-.46l-10.8,6.83h-14.1a2.035,2.035,0,0,0-.54.09l-10.93,3.12-11.34-3.08-11.02-6.96a1.962,1.962,0,0,0-2.57.42l-18.52,22.78a1.947,1.947,0,0,0,.25,2.7l9.7,8.29,8.71,11.65a6.859,6.859,0,0,0,.15,9.58,6.945,6.945,0,0,0,4.21,1.97,6.233,6.233,0,0,0-.09,1.06,6.833,6.833,0,0,0,2.03,4.86,6.916,6.916,0,0,0,4.9,2.02h0.08V1998a6.832,6.832,0,0,0,2.03,4.87,6.914,6.914,0,0,0,4.9,2.01,7.849,7.849,0,0,0,1.08-.08,6.812,6.812,0,0,0,1.99,4.19,6.978,6.978,0,0,0,9.8,0l1.06-1.06,0.45,0.36a6.968,6.968,0,0,0,9.71-.08,6.834,6.834,0,0,0,2.03-4.97,7.01,7.01,0,0,0,5.01-2.01,6.9,6.9,0,0,1,7.03-6.99,6.84,6.84,0,0,0,2.03-4.98,6.878,6.878,0,0,0,5.92-10.62l6.36-13.23,9.55-8.16A1.951,1.951,0,0,0,1413.6,1954.58Zm-78.7-17.83,7.92,5.01-17.23,20.85-6.91-5.9Zm1.12,44.22,2.39-2.38c0.07-.07.15-0.14,0.22-0.2a3,3,0,0,1,1.64-.66h0.05a2.09,2.09,0,0,1,.25-0.01,3,3,0,0,1,2.15.93,3.049,3.049,0,0,1-.13,4.24l-2.32,2.3a3.012,3.012,0,0,1-4.25,0A2.958,2.958,0,0,1,1336.02,1980.97Zm6.15,12.12a2.933,2.933,0,0,1-.88-2.11,2.973,2.973,0,0,1,.88-2.12l4.63-4.6a3.075,3.075,0,0,1,3.42-.59,2.989,2.989,0,0,1,1.66,3.09,3.18,3.18,0,0,1-.89,1.8l-4.57,4.53A3.03,3.03,0,0,1,1342.17,1993.09Zm7,7.02a2.97,2.97,0,0,1,0-4.22l4.63-4.61a3.055,3.055,0,0,1,3.64-.47,2.975,2.975,0,0,1,1.44,3.02,3.167,3.167,0,0,1-.89,1.75l-4.57,4.53A3.006,3.006,0,0,1,1349.17,2000.11Zm7.97,6.12a2.976,2.976,0,0,1,0-4.22l2.39-2.38c0.08-.07.15-0.14,0.23-0.2h0.01a2.863,2.863,0,0,1,1.33-.62h0.03a2.336,2.336,0,0,1,.26-0.04h0.1a1.477,1.477,0,0,1,.21-0.01,3.015,3.015,0,0,1,2.15.93c0.07,0.08.13,0.15,0.19,0.23a3.066,3.066,0,0,1-.34,4.02l-2.3,2.29A3.024,3.024,0,0,1,1357.14,2006.23Zm36.59-21.73a3.042,3.042,0,0,1-4.26,0c-0.04-.04-0.09-0.08-0.13-0.12l-12.61-12.66a1.968,1.968,0,0,0-2.77-.01,1.935,1.935,0,0,0-.02,2.75l12.75,12.79v0.01a2.995,2.995,0,0,1-4.25,4.22l-8.53-8.55a1.968,1.968,0,0,0-2.77-.02,1.947,1.947,0,0,0-.02,2.76l8.4,8.42a1.07,1.07,0,0,0,.14.16,2.976,2.976,0,0,1,0,4.22,3.033,3.033,0,0,1-4.26,0l-4.65-4.67a1.98,1.98,0,0,0-2.78-.01,1.934,1.934,0,0,0-.01,2.75l4.52,4.54c0.05,0.05.09,0.1,0.14,0.15a2.988,2.988,0,0,1,0,4.23,3.03,3.03,0,0,1-4.25,0,5.067,5.067,0,0,0-.45-0.36,0.205,0.205,0,0,1-.09-0.31c0.06-.16.16-0.3,0.22-0.46,0.07-.18.13-0.36,0.19-0.54a28.3,28.3,0,0,1-7.27-15.13,6.94,6.94,0,0,0-4.94-2.15h-0.21a6.9,6.9,0,0,0-8.47-6.84,6.8,6.8,0,0,0-2.29-4.18,6.927,6.927,0,0,0-4.43-1.67,7.012,7.012,0,0,0-4.74,1.77l-7.58-10.14,18.14-21.95,5.78,1.57-7.55,13.23a6.856,6.856,0,0,0,2.61,9.38c0.1,0.06.21,0.12,0.31,0.17a0.02,0.02,0,0,1,.02.01,6.579,6.579,0,0,0,.83.34,6.946,6.946,0,0,0,8.29-3.11l4.91-8.6,8.75,0.62,23.33,23.16A2.988,2.988,0,0,1,1393.73,1984.5Zm0.81-8.93-21.88-21.73c-0.04-.04-0.09-0.08-0.13-0.12a2,2,0,0,0-1.12-.44l-10.72-.76a2.013,2.013,0,0,0-1.85.98l-5.51,9.67a3.015,3.015,0,0,1-5.52-.68,3,3,0,0,1,.28-2.27l7.37-12.9,2.98-.85a0.142,0.142,0,0,1,.06-0.02l11.13-3.2h13.46l16.79,21.21Zm7.91-14.17-15.53-19.62,7.92-5,14.52,18.72Zm-27.87-25.7a1.951,1.951,0,0,0,1.39-.57l13.4-13.3a1.956,1.956,0,0,0,0-2.76,1.98,1.98,0,0,0-2.78,0l-13.39,13.31a1.926,1.926,0,0,0,0,2.75A1.946,1.946,0,0,0,1374.58,1935.7Zm-22.55-.57a1.968,1.968,0,0,0,1.39.57,1.946,1.946,0,0,0,1.38-.57,1.926,1.926,0,0,0,0-2.75l-13.39-13.31a1.968,1.968,0,0,0-2.77,0,1.938,1.938,0,0,0,0,2.76Zm11.97,0.57a1.955,1.955,0,0,0,1.96-1.95v-11.01a1.96,1.96,0,0,0-3.92,0v11.01A1.955,1.955,0,0,0,1364,1935.7Zm-1.81-20.01a1.956,1.956,0,1,0,3-2.29A1.953,1.953,0,0,0,1362.19,1915.69Z" transform="translate(-1314 -1913)"/>
</svg>
