<svg xmlns="http://www.w3.org/2000/svg" width="100" height="100" viewBox="0 0 100 100">
  <defs>
    <style>
      .cls-1 {
        fill: #fff;
        fill-rule: evenodd;
      }
    </style>
  </defs>
  <path id="Фигура_20" data-name="Фигура 20" class="cls-1" d="M1010.55,1913.45a1.481,1.481,0,0,0-1.23-.44l-35.789,3.46a1.547,1.547,0,0,0-.935,2.61l7,7-50.832,50.83a1.526,1.526,0,0,0,0,2.16l16.164,16.17a1.544,1.544,0,0,0,2.164,0l8.806-8.81a1.529,1.529,0,1,0-2.164-2.16l-7.724,7.72-14-14,50.833-50.83a1.537,1.537,0,0,0,0-2.17l-5.788-5.78,30.715-2.98-2.98,30.72-5.784-5.79a1.526,1.526,0,0,0-2.164,0l-38.211,38.21a1.529,1.529,0,0,0,2.165,2.16l37.128-37.13,7,7a1.545,1.545,0,0,0,2.61-.93l3.46-35.79A1.512,1.512,0,0,0,1010.55,1913.45Zm-69.231,85.39-16.164-16.16a1.532,1.532,0,1,0-2.164,2.17l16.163,16.16A1.533,1.533,0,0,0,941.319,1998.84Zm-5.773,5.78-16.163-16.17a1.533,1.533,0,1,0-2.165,2.17l16.163,16.16A1.529,1.529,0,0,0,935.546,2004.62Zm-5.773,5.77-16.163-16.16a1.529,1.529,0,1,0-2.165,2.16l16.164,16.16A1.529,1.529,0,1,0,929.773,2010.39Zm58.47-38a17.855,17.855,0,1,0,17.857,17.86A17.878,17.878,0,0,0,988.243,1972.39Zm0,32.65a14.8,14.8,0,1,1,14.8-14.79A14.806,14.806,0,0,1,988.243,2005.04Zm4.245-16.45a1.527,1.527,0,0,0,1.531-1.53V1986a4.723,4.723,0,0,0-4.245-4.69v-1.68a1.531,1.531,0,0,0-3.061,0v1.75a5.248,5.248,0,0,0,1,10.4h1.061a2.18,2.18,0,1,1,0,4.36h-1.592a1.653,1.653,0,0,1-1.653-1.65,1.531,1.531,0,0,0-3.062,0,4.717,4.717,0,0,0,4.246,4.69v1.68a1.531,1.531,0,0,0,3.061,0v-1.75a5.243,5.243,0,0,0-1-10.39h-1.061a2.185,2.185,0,0,1,0-4.37h1.592a1.654,1.654,0,0,1,1.653,1.65v1.06A1.527,1.527,0,0,0,992.488,1988.59Zm-59.758-71.72a17.86,17.86,0,1,0,17.858,17.86A17.884,17.884,0,0,0,932.73,1916.87Zm0,32.66a14.8,14.8,0,1,1,14.8-14.8A14.816,14.816,0,0,1,932.73,1949.53Zm4.245-16.45a1.534,1.534,0,0,0,1.531-1.53v-1.06a4.716,4.716,0,0,0-4.245-4.69v-1.68a1.531,1.531,0,0,0-3.062,0v1.75a5.243,5.243,0,0,0,1,10.39h1.062a2.185,2.185,0,0,1,0,4.37h-1.592a1.653,1.653,0,0,1-1.653-1.65,1.531,1.531,0,0,0-3.062,0,4.723,4.723,0,0,0,4.245,4.69v1.68a1.531,1.531,0,0,0,3.062,0v-1.75a5.248,5.248,0,0,0-1-10.4H932.2a2.185,2.185,0,0,1,0-4.37h1.592a1.661,1.661,0,0,1,1.653,1.66v1.06A1.534,1.534,0,0,0,936.975,1933.08Z" transform="translate(-911 -1913)"/>
</svg>
