<svg xmlns="http://www.w3.org/2000/svg" xmlns:xlink="http://www.w3.org/1999/xlink" width="76" height="76" viewBox="0 0 76 76">
  <defs>
    <style>
      .cls-1 {
        fill: #fbf1e1;
        fill-rule: evenodd;
        filter: url(#filter);
      }
    </style>
    <filter id="filter" x="340" y="2413" width="76" height="76" filterUnits="userSpaceOnUse">
      <feFlood result="flood" flood-color="#24b7fa"/>
      <feComposite result="composite" operator="in" in2="SourceGraphic"/>
      <feBlend result="blend" in2="SourceGraphic"/>
    </filter>
  </defs>
  <path id="Фигура_4" data-name="Фигура 4" class="cls-1" d="M385.833,2481.91l-4.156-1.19v-0.33a6.131,6.131,0,0,0,2.452-4.88v-2.2a6.315,6.315,0,0,0-5.585-6.36,6.135,6.135,0,0,0-6.673,6.11v2.45a6.131,6.131,0,0,0,2.452,4.88v0.33l-4.156,1.19a6.114,6.114,0,0,0-4.425,5.86V2489h24.516v-1.23A6.114,6.114,0,0,0,385.833,2481.91Zm-17.425,4.64a3.667,3.667,0,0,1,2.433-2.29l5.933-1.69v-3.54l-0.609-.35a3.643,3.643,0,0,1-1.842-3.17v-2.45a3.671,3.671,0,0,1,1.194-2.71,3.624,3.624,0,0,1,2.816-.95,3.835,3.835,0,0,1,3.344,3.91v2.2a3.646,3.646,0,0,1-1.842,3.17l-0.609.35v3.54l5.933,1.69a3.667,3.667,0,0,1,2.433,2.29H368.408Zm43.167-4.64-4.156-1.19v-0.33a6.131,6.131,0,0,0,2.452-4.88v-2.19a6.3,6.3,0,0,0-5.585-6.36,6.119,6.119,0,0,0-6.673,6.1v2.45a6.131,6.131,0,0,0,2.452,4.88v0.33l-4.156,1.19a6.114,6.114,0,0,0-4.425,5.86V2489H416v-1.23A6.114,6.114,0,0,0,411.575,2481.91Zm-17.425,4.64a3.667,3.667,0,0,1,2.433-2.29l5.933-1.69v-3.54l-0.609-.35a3.643,3.643,0,0,1-1.842-3.17v-2.45a3.671,3.671,0,0,1,1.194-2.71,3.623,3.623,0,0,1,2.816-.95,3.838,3.838,0,0,1,3.344,3.92v2.19a3.646,3.646,0,0,1-1.842,3.17l-0.609.35v3.54l5.932,1.69a3.667,3.667,0,0,1,2.434,2.29H394.15Zm-34.059-4.64-4.155-1.19v-0.33a6.133,6.133,0,0,0,2.451-4.88v-2.19a6.3,6.3,0,0,0-5.585-6.36,6.119,6.119,0,0,0-6.673,6.1v2.45a6.131,6.131,0,0,0,2.452,4.88v0.33l-4.156,1.19a6.114,6.114,0,0,0-4.425,5.86V2489h24.516v-1.23A6.114,6.114,0,0,0,360.091,2481.91Zm-17.425,4.64a3.667,3.667,0,0,1,2.434-2.29l5.932-1.69v-3.54l-0.609-.35a3.646,3.646,0,0,1-1.842-3.17v-2.45a3.671,3.671,0,0,1,1.194-2.71,3.624,3.624,0,0,1,2.816-.95,3.838,3.838,0,0,1,3.345,3.92v2.19a3.644,3.644,0,0,1-1.843,3.17l-0.609.35v3.54l5.933,1.69a3.667,3.667,0,0,1,2.433,2.29H342.666Zm31.657-28.67,11.321-5.66-11.321-5.66v11.32Zm2.451-7.36,3.389,1.7-3.389,1.69v-3.39Zm36.774-32.63H388.131l-7.234-4.14a5.974,5.974,0,0,0-5.8,0l-7.233,4.14H342.452a2.454,2.454,0,0,0-2.452,2.45v3.68a2.454,2.454,0,0,0,2.452,2.45v38.01H344.9v-38.01h11.016v-2.45H342.452v-3.68h21.126l-3.509,2.01a3.332,3.332,0,0,0,0,5.79l3.221,1.84v10.59l0.491,0.37a19.818,19.818,0,0,0,5.565,2.62,12.258,12.258,0,1,0,17.308,0,19.818,19.818,0,0,0,5.565-2.62l0.491-.37v-10.59l3.221-1.84a3.314,3.314,0,0,0,1.417-1.67h1.491a1.229,1.229,0,0,1,1.226,1.23v7.35H399.14l-2.7,9.48-0.048.33a4.9,4.9,0,1,0,9.807,0l-2.754-9.81h-0.924v-7.35a3.682,3.682,0,0,0-3.677-3.68h-1.491a3.319,3.319,0,0,0-1.417-1.67l-3.509-2.01h21.126v3.68h-8.58v2.45H411.1v38.01h2.451v-38.01a2.454,2.454,0,0,0,2.452-2.45v-3.68A2.454,2.454,0,0,0,413.548,2417.89Zm-9.811,27.13a2.452,2.452,0,0,1-4.893,0l2.145-7.51h0.6Zm-15.931,7.2a9.806,9.806,0,1,1-15.569-7.92,29.934,29.934,0,0,0,11.526,0A9.794,9.794,0,0,1,387.806,2452.22Zm2.452-12.92a25.712,25.712,0,0,1-24.516,0v-7.91l9.36,5.35a5.837,5.837,0,0,0,5.8,0l9.361-5.35v7.91Zm3.659-12.83-14.235,8.14a3.469,3.469,0,0,1-3.364,0l-15.033-8.59a0.9,0.9,0,0,1,0-1.55l15.033-8.59a3.435,3.435,0,0,1,3.364,0l14.235,8.14H378v2.45h15.917Zm-46.562,2.45h8.581v2.45h-8.581v-2.45Zm0,4.91h13.484v2.45H347.355v-2.45Zm0,4.9h13.484v2.45H347.355v-2.45Zm0,4.91h13.484v2.45H347.355v-2.45Zm45.355,18.39h15.935v2.45H392.71v-2.45Zm0-4.91h15.935v2.45H392.71v-2.45Zm0-4.9h15.935v2.45H392.71v-2.45Z" transform="translate(-340 -2413)"/>
</svg>
