<svg xmlns="http://www.w3.org/2000/svg" width="100" height="100" viewBox="0 0 100 100">
  <defs>
    <style>
      .cls-1 {
        fill: #fff;
        fill-rule: evenodd;
      }
    </style>
  </defs>
  <path id="Фигура_19" data-name="Фигура 19" class="cls-1" d="M606.782,1929.86l-46.65-16.67a3.421,3.421,0,0,0-2.277,0l-46.638,16.67a3.332,3.332,0,0,0,0,6.27L534,1944.27v10.39c0,6.48,22.442,6.67,25,6.67s25-.19,25-6.67v-10.39l5-1.77v3.83a3.331,3.331,0,0,0,3.333,3.33h3.334a3.331,3.331,0,0,0,3.333-3.33v-5a4.956,4.956,0,0,0-.543-2.22l8.333-2.98a3.332,3.332,0,0,0,0-6.27h-0.008ZM580.667,1951c-6.349-2.89-19.725-3-21.667-3s-15.318.11-21.667,3v-14.52c1-1.29,8.86-3.48,21.667-3.48s20.667,2.19,21.667,3.48V1951ZM559,1958c-12.333,0-20.078-2.04-21.527-3.34,1.449-1.29,9.2-3.33,21.527-3.33s20.078,2.04,21.527,3.33C579.078,1955.96,571.333,1958,559,1958Zm30.782-19.33L584,1940.73v-4.4c0-6.48-22.442-6.67-25-6.67s-25,.19-25,6.67v4.4L512.333,1933l46.69-16.67,33.31,11.9v8.41A4.994,4.994,0,0,0,589.782,1938.67Zm5.885,7.66h-3.334v-5a1.667,1.667,0,1,1,3.334,0v5Zm0-9.76v-7.15l10,3.58ZM604,1964.66a1.491,1.491,0,0,0-.3.03,303.508,303.508,0,0,1-89.4,0,2.948,2.948,0,0,0-.3-0.03c-1.167,0-5,1.33-5,18.34s3.833,18.33,5,18.33a1.491,1.491,0,0,0,.3-0.03,261.584,261.584,0,0,1,34.334-3.13l-3.254,7.81a3.324,3.324,0,0,0,4.4,4.28l1.275-.55,0.552,1.27a3.305,3.305,0,0,0,3.065,2.02h0.042a3.319,3.319,0,0,0,3.055-2.08l2.895-6.93,2.885,6.9a3.33,3.33,0,0,0,3.065,2.11h0.05a3.3,3.3,0,0,0,3.053-2l0.557-1.28,1.255,0.54a3.323,3.323,0,0,0,4.415-4.3l-3.19-7.65a254.89,254.89,0,0,1,30.953,3,1.411,1.411,0,0,0,.29.02c1.167,0,5-1.32,5-18.33s-3.833-18.34-5-18.34h0Zm-39.667,6.62a35.13,35.13,0,0,1,1.2,7.8,11.544,11.544,0,0,0-11.6,1.08,44.944,44.944,0,0,0-1.145-8.89q3.029,0.06,6.212.06C560.822,1971.33,562.59,1971.31,564.333,1971.28ZM560.667,1998a8.335,8.335,0,1,1,8.333-8.33A8.332,8.332,0,0,1,560.667,1998ZM514,1968.83a61.058,61.058,0,0,1,0,28.34A61.058,61.058,0,0,1,514,1968.83Zm3.367,28.62c0.911-2.64,1.633-7.07,1.633-14.45s-0.722-11.81-1.635-14.45a291.871,291.871,0,0,0,31.942,2.63,43.006,43.006,0,0,1,1.36,11.82c0,0.24,0,.47-0.01.7a11.547,11.547,0,0,0-.537,10.92l-0.073.18a290.584,290.584,0,0,0-32.68,2.65h0Zm37.311,12.22-1.216-2.8a1.67,1.67,0,0,0-2.185-.87l-2.805,1.24,3.908-9.37a11.692,11.692,0,0,0,5.887,3.22Zm15.379-3.67a1.67,1.67,0,0,0-2.185.87l-1.234,2.77-3.573-8.56a11.69,11.69,0,0,0,5.892-3.21l3.9,9.33Zm33.61-8.08a269.463,269.463,0,0,0-32.334-3l-0.118-.29a11.593,11.593,0,0,0-2.247-13.14,46.331,46.331,0,0,0-1.19-10.27,278.353,278.353,0,0,0,35.889-3.14c0.773,1.31,2,6.51,2,14.92s-1.235,13.6-2,14.92h0Z" transform="translate(-509 -1913)"/>
</svg>
