<?xml version="1.0" encoding="UTF-8"?>
<!DOCTYPE svg PUBLIC "-//W3C//DTD SVG 1.1//EN" "http://www.w3.org/Graphics/SVG/1.1/DTD/svg11.dtd">
<svg xmlns="http://www.w3.org/2000/svg">
	<defs>
		<filter id="icon-course-a" width="76" height="104" x="975" y="3028" filterUnits="userSpaceOnUse">
			<feFlood flood-color="#24b7fa" result="flood"/>
			<feComposite in2="SourceGraphic" operator="in" result="composite"/>
			<feBlend in2="SourceGraphic" result="blend"/>
		</filter>

		<filter id="icon-user-reg-a" width="23" height="20" x="876" y="698" filterUnits="userSpaceOnUse">
			<feFlood flood-color="#fff" result="flood"/>
			<feComposite in2="SourceGraphic" operator="in" result="composite"/>
			<feBlend in2="SourceGraphic" result="blend"/>
		</filter>

		<filter id="icon-webinar-a" width="76" height="76" x="340" y="2413" filterUnits="userSpaceOnUse">
			<feFlood flood-color="#24b7fa" result="flood"/>
			<feComposite in2="SourceGraphic" operator="in" result="composite"/>
			<feBlend in2="SourceGraphic" result="blend"/>
		</filter>
	</defs>
<symbol id="icon-1" viewBox="0 0 100 100">
	<path fill="#fff" fill-rule="evenodd" d="M97.782 16.86L51.132.19a3.421 3.421 0 00-2.277 0L2.217 16.86a3.332 3.332 0 000 6.27L25 31.27v10.39c0 6.48 22.442 6.67 25 6.67s25-.19 25-6.67V31.27l5-1.77v3.83a3.331 3.331 0 003.333 3.33h3.334A3.331 3.331 0 0090 33.33v-5a4.956 4.956 0 00-.543-2.22l8.333-2.98a3.332 3.332 0 000-6.27h-.008zM71.667 38C65.318 35.11 51.942 35 50 35s-15.318.11-21.667 3V23.48c1-1.29 8.86-3.48 21.667-3.48s20.667 2.19 21.667 3.48V38zM50 45c-12.333 0-20.078-2.04-21.527-3.34 1.449-1.29 9.2-3.33 21.527-3.33s20.078 2.04 21.527 3.33C70.078 42.96 62.333 45 50 45zm30.782-19.33L75 27.73v-4.4c0-6.48-22.442-6.67-25-6.67s-25 .19-25 6.67v4.4L3.333 20l46.69-16.67 33.31 11.9v8.41a4.994 4.994 0 00-2.551 2.03zm5.885 7.66h-3.334v-5a1.667 1.667 0 113.334 0v5zm0-9.76v-7.15l10 3.58zM95 51.66a1.491 1.491 0 00-.3.03 303.508 303.508 0 01-89.4 0 2.948 2.948 0 00-.3-.03c-1.167 0-5 1.33-5 18.34s3.833 18.33 5 18.33a1.491 1.491 0 00.3-.03 261.584 261.584 0 0134.334-3.13l-3.254 7.81a3.324 3.324 0 004.4 4.28l1.275-.55.552 1.27a3.305 3.305 0 003.065 2.02h.042a3.319 3.319 0 003.055-2.08l2.895-6.93 2.885 6.9a3.33 3.33 0 003.065 2.11h.05a3.3 3.3 0 003.053-2l.557-1.28 1.255.54a3.323 3.323 0 004.415-4.3l-3.19-7.65a254.89 254.89 0 0130.953 3 1.411 1.411 0 00.29.02c1.167 0 5-1.32 5-18.33s-3.833-18.34-5-18.34zm-39.667 6.62a35.13 35.13 0 011.2 7.8 11.544 11.544 0 00-11.6 1.08 44.944 44.944 0 00-1.145-8.89q3.029.06 6.212.06c1.822 0 3.59-.02 5.333-.05zM51.667 85A8.335 8.335 0 1160 76.67 8.332 8.332 0 0151.667 85zM5 55.83a61.058 61.058 0 010 28.34 61.058 61.058 0 010-28.34zm3.367 28.62C9.278 81.81 10 77.38 10 70s-.722-11.81-1.635-14.45a291.871 291.871 0 0031.942 2.63A43.006 43.006 0 0141.667 70c0 .24 0 .47-.01.7a11.547 11.547 0 00-.537 10.92l-.073.18a290.584 290.584 0 00-32.68 2.65zm37.311 12.22l-1.216-2.8a1.67 1.67 0 00-2.185-.87l-2.805 1.24 3.908-9.37a11.692 11.692 0 005.887 3.22zM61.057 93a1.67 1.67 0 00-2.185.87l-1.234 2.77-3.573-8.56a11.69 11.69 0 005.892-3.21l3.9 9.33zm33.61-8.08a269.463 269.463 0 00-32.334-3l-.118-.29a11.593 11.593 0 00-2.247-13.14 46.331 46.331 0 00-1.19-10.27 278.353 278.353 0 0035.889-3.14c.773 1.31 2 6.51 2 14.92s-1.235 13.6-2 14.92z" data-name="&#x424;&#x438;&#x433;&#x443;&#x440;&#x430; 19"/>
</symbol>
<symbol id="icon-2" viewBox="0 0 100 100">
	<path fill="#fff" fill-rule="evenodd" d="M99.55.45a1.481 1.481 0 00-1.23-.44L62.531 3.47a1.547 1.547 0 00-.935 2.61l7 7-50.832 50.83a1.526 1.526 0 000 2.16l16.164 16.17a1.544 1.544 0 002.164 0l8.806-8.81a1.529 1.529 0 10-2.164-2.16l-7.724 7.72-14-14 50.833-50.83a1.537 1.537 0 000-2.17l-5.788-5.78L96.77 3.23l-2.98 30.72-5.784-5.79a1.526 1.526 0 00-2.164 0L47.631 66.37a1.53 1.53 0 002.165 2.16L86.924 31.4l7 7a1.545 1.545 0 002.61-.93l3.46-35.79A1.512 1.512 0 0099.55.45zM30.319 85.84L14.155 69.68a1.532 1.532 0 10-2.164 2.17l16.163 16.16a1.533 1.533 0 002.165-2.17zm-5.773 5.78L8.383 75.45a1.533 1.533 0 10-2.165 2.17l16.163 16.16a1.53 1.53 0 002.165-2.16zm-5.773 5.77L2.61 81.23a1.53 1.53 0 10-2.165 2.16l16.164 16.16a1.529 1.529 0 102.164-2.16zm58.47-38A17.855 17.855 0 1095.1 77.25a17.878 17.878 0 00-17.857-17.86zm0 32.65a14.8 14.8 0 1114.8-14.79 14.806 14.806 0 01-14.8 14.79zm4.245-16.45a1.527 1.527 0 001.531-1.53V73a4.723 4.723 0 00-4.245-4.69v-1.68a1.531 1.531 0 00-3.061 0v1.75a5.248 5.248 0 001 10.4h1.061a2.18 2.18 0 110 4.36h-1.592a1.653 1.653 0 01-1.653-1.65 1.531 1.531 0 00-3.062 0 4.717 4.717 0 004.246 4.69v1.68a1.531 1.531 0 003.061 0v-1.75a5.243 5.243 0 00-1-10.39h-1.061a2.185 2.185 0 010-4.37h1.592A1.654 1.654 0 0179.958 73v1.06a1.527 1.527 0 001.53 1.53zM21.73 3.87a17.86 17.86 0 1017.858 17.86A17.884 17.884 0 0021.73 3.87zm0 32.66a14.8 14.8 0 1114.8-14.8 14.816 14.816 0 01-14.8 14.8zm4.245-16.45a1.534 1.534 0 001.531-1.53v-1.06a4.716 4.716 0 00-4.245-4.69v-1.68a1.531 1.531 0 00-3.062 0v1.75a5.243 5.243 0 001 10.39h1.062a2.185 2.185 0 010 4.37h-1.592a1.653 1.653 0 01-1.653-1.65 1.531 1.531 0 00-3.062 0 4.723 4.723 0 004.245 4.69v1.68a1.531 1.531 0 003.062 0V30.6a5.248 5.248 0 00-1-10.4H21.2a2.185 2.185 0 010-4.37h1.592a1.661 1.661 0 011.653 1.66v1.06a1.534 1.534 0 001.53 1.53z" data-name="&#x424;&#x438;&#x433;&#x443;&#x440;&#x430; 20"/>
</symbol>
<symbol id="icon-3" viewBox="0 0 100 98">
	<path fill="#fff" fill-rule="evenodd" d="M99.6 41.58L82.86 19.99a1.975 1.975 0 00-2.61-.46l-10.8 6.83h-14.1a2.035 2.035 0 00-.54.09l-10.93 3.12-11.34-3.08-11.02-6.96a1.962 1.962 0 00-2.57.42L.43 42.73a1.947 1.947 0 00.25 2.7l9.7 8.29 8.71 11.65a6.859 6.859 0 00.15 9.58 6.945 6.945 0 004.21 1.97 6.233 6.233 0 00-.09 1.06 6.833 6.833 0 002.03 4.86 6.916 6.916 0 004.9 2.02h.08V85a6.832 6.832 0 002.03 4.87 6.914 6.914 0 004.9 2.01 7.849 7.849 0 001.08-.08 6.812 6.812 0 001.99 4.19 6.978 6.978 0 009.8 0l1.06-1.06.45.36a6.968 6.968 0 009.71-.08 6.834 6.834 0 002.03-4.97 7.01 7.01 0 005.01-2.01 6.9 6.9 0 017.03-6.99 6.84 6.84 0 002.03-4.98 6.878 6.878 0 005.92-10.62l6.36-13.23 9.55-8.16a1.951 1.951 0 00.28-2.67zM20.9 23.75l7.92 5.01-17.23 20.85-6.91-5.9zm1.12 44.22l2.39-2.38c.07-.07.15-.14.22-.2a3 3 0 011.64-.66h.05a2.09 2.09 0 01.25-.01 3 3 0 012.15.93 3.049 3.049 0 01-.13 4.24l-2.32 2.3a3.012 3.012 0 01-4.25 0 2.958 2.958 0 010-4.22zm6.15 12.12a2.933 2.933 0 01-.88-2.11 2.973 2.973 0 01.88-2.12l4.63-4.6a3.075 3.075 0 013.42-.59 2.989 2.989 0 011.66 3.09 3.18 3.18 0 01-.89 1.8l-4.57 4.53a3.03 3.03 0 01-4.25 0zm7 7.02a2.97 2.97 0 010-4.22l4.63-4.61a3.055 3.055 0 013.64-.47 2.975 2.975 0 011.44 3.02 3.167 3.167 0 01-.89 1.75l-4.57 4.53a3.006 3.006 0 01-4.25 0zm7.97 6.12a2.976 2.976 0 010-4.22l2.39-2.38c.08-.07.15-.14.23-.2h.01a2.863 2.863 0 011.33-.62h.03a2.336 2.336 0 01.26-.04h.1a1.477 1.477 0 01.21-.01 3.015 3.015 0 012.15.93c.07.08.13.15.19.23a3.066 3.066 0 01-.34 4.02l-2.3 2.29a3.024 3.024 0 01-4.26 0zM79.73 71.5a3.042 3.042 0 01-4.26 0c-.04-.04-.09-.08-.13-.12L62.73 58.72a1.968 1.968 0 00-2.77-.01 1.935 1.935 0 00-.02 2.75l12.75 12.79v.01a2.995 2.995 0 01-4.25 4.22l-8.53-8.55a1.968 1.968 0 00-2.77-.02 1.947 1.947 0 00-.02 2.76l8.4 8.42a1.07 1.07 0 00.14.16 2.976 2.976 0 010 4.22 3.033 3.033 0 01-4.26 0l-4.65-4.67a1.98 1.98 0 00-2.78-.01 1.934 1.934 0 00-.01 2.75l4.52 4.54c.05.05.09.1.14.15a2.988 2.988 0 010 4.23 3.03 3.03 0 01-4.25 0 5.067 5.067 0 00-.45-.36.205.205 0 01-.09-.31c.06-.16.16-.3.22-.46.07-.18.13-.36.19-.54a28.3 28.3 0 01-7.27-15.13 6.94 6.94 0 00-4.94-2.15h-.21a6.9 6.9 0 00-8.47-6.84 6.8 6.8 0 00-2.29-4.18 6.927 6.927 0 00-4.43-1.67 7.012 7.012 0 00-4.74 1.77l-7.58-10.14L32.45 30.5l5.78 1.57-7.55 13.23a6.856 6.856 0 002.61 9.38c.1.06.21.12.31.17a.02.02 0 01.02.01 6.579 6.579 0 00.83.34 6.946 6.946 0 008.29-3.11l4.91-8.6 8.75.62 23.33 23.16a2.988 2.988 0 010 4.23zm.81-8.93L58.66 40.84c-.04-.04-.09-.08-.13-.12a2 2 0 00-1.12-.44l-10.72-.76a2.013 2.013 0 00-1.85.98l-5.51 9.67a3.015 3.015 0 01-5.52-.68 3 3 0 01.28-2.27l7.37-12.9 2.98-.85a.142.142 0 01.06-.02l11.13-3.2h13.46l16.79 21.21zm7.91-14.17L72.92 28.78l7.92-5L95.36 42.5zM60.58 22.7a1.951 1.951 0 001.39-.57l13.4-13.3a1.956 1.956 0 000-2.76 1.98 1.98 0 00-2.78 0L59.2 19.38a1.926 1.926 0 000 2.75 1.946 1.946 0 001.38.57zm-22.55-.57a1.968 1.968 0 001.39.57 1.946 1.946 0 001.38-.57 1.926 1.926 0 000-2.75L27.41 6.07a1.968 1.968 0 00-2.77 0 1.938 1.938 0 000 2.76zM50 22.7a1.955 1.955 0 001.96-1.95V9.74a1.96 1.96 0 00-3.92 0v11.01A1.955 1.955 0 0050 22.7zM48.19 2.69a1.956 1.956 0 103-2.29 1.953 1.953 0 00-3 2.29z" data-name="&#x424;&#x438;&#x433;&#x443;&#x440;&#x430; 21"/>
</symbol>
<symbol id="icon-arrow-left" viewBox="0 0 18 34">
	<path fill="#417682" fill-rule="evenodd" d="M.272 16.32L16.353.28a.963.963 0 011.364 1.36L2.322 17l15.395 15.35a.97.97 0 01-.678 1.65.919.919 0 01-.679-.29L.279 17.68a.964.964 0 01-.007-1.36z" data-name="&#x424;&#x438;&#x433;&#x443;&#x440;&#x430; 18"/>
</symbol>
<symbol id="icon-arrow-right" viewBox="0 0 17.97 34">
	<path fill="#417682" fill-rule="evenodd" d="M17.7 16.32L1.64.28A.962.962 0 00.28 1.64L15.65 17 .28 32.35a.954.954 0 000 1.36.973.973 0 00.68.29.932.932 0 00.68-.29l16.05-16.03a.963.963 0 00.01-1.36z" data-name="&#x424;&#x438;&#x433;&#x443;&#x440;&#x430; 18"/>
</symbol>
<symbol id="icon-course" viewBox="0 0 76 104">

	<path fill="#fbf1e1" fill-rule="evenodd" d="M1049.27 3028h-72.543a1.732 1.732 0 00-1.727 1.73v83.2a1.734 1.734 0 001.727 1.74h19.812l-4.871 10.46a1.747 1.747 0 00.841 2.31 1.721 1.721 0 001.318.05l5.268-1.92 1.915 5.28a1.736 1.736 0 001.56 1.15h.07a1.734 1.734 0 001.57-1.01l6.8-14.7a18.91 18.91 0 003.98 0l6.8 14.7a1.734 1.734 0 001.57 1.01h.07a1.736 1.736 0 001.56-1.15l1.91-5.28 5.27 1.92a1.727 1.727 0 002.22-1.03 1.8 1.8 0 00-.06-1.33l-4.87-10.46h19.81a1.733 1.733 0 001.73-1.74v-83.2a1.731 1.731 0 00-1.73-1.73zm-50.4 93.96l-2.3.85 4.576-9.84c.48.31.99.6 1.49.86zm3.959 3.78l-.83-2.3 3.81-8.24c.56.18 1.11.35 1.68.49zm10.17-12.81a19.065 19.065 0 1119-19.06 19.03 19.03 0 01-18.999 19.06zm10.17 12.81l-4.66-10.05c.57-.14 1.12-.31 1.68-.49l3.81 8.24zm3.96-3.78l-3.77-8.13c.5-.26 1.01-.55 1.49-.86l4.58 9.84zm20.42-10.76h-19.71l-.16-.33a22.5 22.5 0 10-31.67-2.32 22.873 22.873 0 002.308 2.32l-.155.33h-19.707v-79.73h69.095v79.73zm-20.18-21.44a6.262 6.262 0 01-1.28-1.34 6.012 6.012 0 01-.05-1.94 5.815 5.815 0 00-1.07-4.63 5.724 5.724 0 00-4.59-1.07 6.143 6.143 0 01-1.96-.05 6.252 6.252 0 01-1.33-1.29 4.547 4.547 0 00-8.18 0 6.252 6.252 0 01-1.33 1.29 6.143 6.143 0 01-1.96.05 5.724 5.724 0 00-4.59 1.07 5.807 5.807 0 00-1.071 4.63 5.9 5.9 0 01-.052 1.94 6.041 6.041 0 01-1.278 1.34 4.574 4.574 0 000 8.21 6.041 6.041 0 011.278 1.34 5.9 5.9 0 01.052 1.94 5.807 5.807 0 001.071 4.63 5.724 5.724 0 004.59 1.07 6.143 6.143 0 011.96.05 6.5 6.5 0 011.33 1.29 4.547 4.547 0 008.18 0 6.5 6.5 0 011.33-1.29 6.143 6.143 0 011.96-.05 5.724 5.724 0 004.59-1.07 5.815 5.815 0 001.07-4.63 6.012 6.012 0 01.05-1.94 6.262 6.262 0 011.28-1.34 4.571 4.571 0 000-8.21zm-2.28 5.61a7.526 7.526 0 00-2.19 2.6 7.7 7.7 0 00-.31 3.5 6.374 6.374 0 01-.06 1.95 6.076 6.076 0 01-1.95.07 7.944 7.944 0 00-3.49.31 7.327 7.327 0 00-2.59 2.2 1.5 1.5 0 01-3 0 7.327 7.327 0 00-2.59-2.2 5.693 5.693 0 00-2.2-.37q-.675 0-1.29.06a6.309 6.309 0 01-1.94-.06 6.128 6.128 0 01-.07-1.96 7.7 7.7 0 00-.31-3.5 7.526 7.526 0 00-2.19-2.6 5.279 5.279 0 01-1.383-1.5 5.169 5.169 0 011.383-1.51 7.526 7.526 0 002.19-2.6 7.7 7.7 0 00.31-3.5 6.309 6.309 0 01.06-1.94 5.556 5.556 0 011.95-.07 7.8 7.8 0 003.49-.32 7.327 7.327 0 002.59-2.2 1.505 1.505 0 013 0 7.327 7.327 0 002.59 2.2 7.8 7.8 0 003.49.32 6.012 6.012 0 011.94.05 6.128 6.128 0 01.07 1.96 7.7 7.7 0 00.31 3.5 7.526 7.526 0 002.19 2.6 5.152 5.152 0 011.38 1.51 5.261 5.261 0 01-1.38 1.5zm-20.73-58.7h17.28v3.46h-17.28v-3.46zm-19 10.4h55.276v3.46h-55.271v-3.46zm0 10.4h55.276v3.46h-55.271v-3.46z" data-name="&#x424;&#x438;&#x433;&#x443;&#x440;&#x430; 5" filter="url(#icon-course-a)" transform="translate(-975 -3028)"/>
</symbol>
<symbol id="icon-user-reg" viewBox="0 0 23 20">

	<path fill="#fff" fill-rule="evenodd" d="M891.2 714.567a4.375 4.375 0 012.2-3.786 17.421 17.421 0 00-2.63-.616 6.484 6.484 0 10-6.278 0c-4.9.765-8.493 3.271-8.493 6.249h15.62a4.355 4.355 0 01-.419-1.847zm4.382-3.425a3.426 3.426 0 103.42 3.426 3.422 3.422 0 00-3.422-3.426zm2.233 4.033h-1.625v1.625h-1.215v-1.629h-1.625v-1.219h1.625v-1.629h1.215v1.629h1.625v1.219z" data-name="&#x424;&#x438;&#x433;&#x443;&#x440;&#x430; 1" filter="url(#icon-user-reg-a)" transform="translate(-876 -698)"/>
</symbol>
<symbol id="icon-webinar" viewBox="0 0 76 76">

	<path fill="#fbf1e1" fill-rule="evenodd" d="M385.833 2481.91l-4.156-1.19v-.33a6.131 6.131 0 002.452-4.88v-2.2a6.315 6.315 0 00-5.585-6.36 6.135 6.135 0 00-6.673 6.11v2.45a6.131 6.131 0 002.452 4.88v.33l-4.156 1.19a6.114 6.114 0 00-4.425 5.86v1.23h24.516v-1.23a6.114 6.114 0 00-4.425-5.86zm-17.425 4.64a3.667 3.667 0 012.433-2.29l5.933-1.69v-3.54l-.609-.35a3.643 3.643 0 01-1.842-3.17v-2.45a3.671 3.671 0 011.194-2.71 3.624 3.624 0 012.816-.95 3.835 3.835 0 013.344 3.91v2.2a3.646 3.646 0 01-1.842 3.17l-.609.35v3.54l5.933 1.69a3.667 3.667 0 012.433 2.29h-19.184zm43.167-4.64l-4.156-1.19v-.33a6.131 6.131 0 002.452-4.88v-2.19a6.3 6.3 0 00-5.585-6.36 6.119 6.119 0 00-6.673 6.1v2.45a6.131 6.131 0 002.452 4.88v.33l-4.156 1.19a6.114 6.114 0 00-4.425 5.86v1.23H416v-1.23a6.114 6.114 0 00-4.425-5.86zm-17.425 4.64a3.667 3.667 0 012.433-2.29l5.933-1.69v-3.54l-.609-.35a3.643 3.643 0 01-1.842-3.17v-2.45a3.671 3.671 0 011.194-2.71 3.623 3.623 0 012.816-.95 3.838 3.838 0 013.344 3.92v2.19a3.646 3.646 0 01-1.842 3.17l-.609.35v3.54l5.932 1.69a3.667 3.667 0 012.434 2.29H394.15zm-34.059-4.64l-4.155-1.19v-.33a6.133 6.133 0 002.451-4.88v-2.19a6.3 6.3 0 00-5.585-6.36 6.119 6.119 0 00-6.673 6.1v2.45a6.131 6.131 0 002.452 4.88v.33l-4.156 1.19a6.114 6.114 0 00-4.425 5.86v1.23h24.516v-1.23a6.114 6.114 0 00-4.425-5.86zm-17.425 4.64a3.667 3.667 0 012.434-2.29l5.932-1.69v-3.54l-.609-.35a3.646 3.646 0 01-1.842-3.17v-2.45a3.671 3.671 0 011.194-2.71 3.624 3.624 0 012.816-.95 3.838 3.838 0 013.345 3.92v2.19a3.644 3.644 0 01-1.843 3.17l-.609.35v3.54l5.933 1.69a3.667 3.667 0 012.433 2.29h-19.184zm31.657-28.67l11.321-5.66-11.321-5.66v11.32zm2.451-7.36l3.389 1.7-3.389 1.69v-3.39zm36.774-32.63h-25.417l-7.234-4.14a5.974 5.974 0 00-5.8 0l-7.233 4.14h-25.412a2.454 2.454 0 00-2.452 2.45v3.68a2.454 2.454 0 002.452 2.45v38.01h2.448v-38.01h11.016v-2.45h-13.464v-3.68h21.126l-3.509 2.01a3.332 3.332 0 000 5.79l3.221 1.84v10.59l.491.37a19.818 19.818 0 005.565 2.62 12.258 12.258 0 1017.308 0 19.818 19.818 0 005.565-2.62l.491-.37v-10.59l3.221-1.84a3.314 3.314 0 001.417-1.67h1.491a1.229 1.229 0 011.226 1.23v7.35h-.925l-2.7 9.48-.048.33a4.9 4.9 0 109.807 0l-2.754-9.81h-.924v-7.35a3.682 3.682 0 00-3.677-3.68h-1.491a3.319 3.319 0 00-1.417-1.67l-3.509-2.01h21.126v3.68h-8.58v2.45h6.127v38.01h2.451v-38.01a2.454 2.454 0 002.452-2.45v-3.68a2.454 2.454 0 00-2.455-2.45zm-9.811 27.13a2.452 2.452 0 01-4.893 0l2.145-7.51h.6zm-15.931 7.2a9.806 9.806 0 11-15.569-7.92 29.934 29.934 0 0011.526 0 9.794 9.794 0 014.043 7.92zm2.452-12.92a25.712 25.712 0 01-24.516 0v-7.91l9.36 5.35a5.837 5.837 0 005.8 0l9.361-5.35v7.91zm3.659-12.83l-14.235 8.14a3.469 3.469 0 01-3.364 0l-15.033-8.59a.9.9 0 010-1.55l15.033-8.59a3.435 3.435 0 013.364 0l14.235 8.14H378v2.45h15.917zm-46.562 2.45h8.581v2.45h-8.581v-2.45zm0 4.91h13.484v2.45h-13.484v-2.45zm0 4.9h13.484v2.45h-13.484v-2.45zm0 4.91h13.484v2.45h-13.484v-2.45zm45.355 18.39h15.935v2.45H392.71v-2.45zm0-4.91h15.935v2.45H392.71v-2.45zm0-4.9h15.935v2.45H392.71v-2.45z" data-name="&#x424;&#x438;&#x433;&#x443;&#x440;&#x430; 4" filter="url(#icon-webinar-a)" transform="translate(-340 -2413)"/>
</symbol>
</svg>